<svg width="514" height="127" viewBox="0 0 514 127" fill="none" xmlns="http://www.w3.org/2000/svg">
<path d="M458.135 50.4357C457.901 50.7576 457.667 51.0063 457.433 51.1819C457.199 51.3575 456.877 51.4453 456.467 51.4453C456.028 51.4453 455.545 51.2697 455.018 50.9185C454.492 50.5381 453.833 50.1284 453.043 49.6895C452.282 49.2505 451.331 48.8555 450.19 48.5043C449.078 48.1239 447.703 47.9337 446.064 47.9337C443.869 47.9337 441.938 48.3287 440.27 49.1188C438.602 49.8797 437.197 50.9917 436.056 52.4548C434.944 53.918 434.095 55.6884 433.51 57.7661C432.954 59.8438 432.676 62.1702 432.676 64.7454C432.676 67.4376 432.983 69.8372 433.598 71.9441C434.212 74.0218 435.076 75.7776 436.188 77.2115C437.329 78.6161 438.69 79.6988 440.27 80.4597C441.879 81.1913 443.679 81.5571 445.669 81.5571C447.571 81.5571 449.137 81.3376 450.366 80.8986C451.595 80.4304 452.604 79.9183 453.394 79.3623C454.214 78.8063 454.887 78.3088 455.413 77.8699C455.969 77.4017 456.511 77.1676 457.038 77.1676C457.681 77.1676 458.179 77.4163 458.53 77.9138L460.725 80.7669C459.759 81.9667 458.662 82.9909 457.433 83.8396C456.204 84.6882 454.872 85.4052 453.438 85.9904C452.034 86.5464 450.556 86.9561 449.005 87.2195C447.454 87.4828 445.874 87.6145 444.264 87.6145C441.484 87.6145 438.894 87.1024 436.495 86.0782C434.125 85.054 432.061 83.5762 430.306 81.6448C428.55 79.6842 427.175 77.2846 426.18 74.4461C425.185 71.6076 424.687 68.374 424.687 64.7454C424.687 61.4386 425.141 58.3806 426.048 55.5714C426.984 52.7621 428.33 50.3479 430.086 48.3287C431.871 46.2803 434.051 44.6855 436.627 43.5442C439.231 42.4029 442.216 41.8323 445.581 41.8323C448.712 41.8323 451.463 42.3444 453.833 43.3686C456.233 44.3636 458.354 45.7828 460.198 47.6264L458.135 50.4357ZM489.699 66.984C486.099 67.1011 483.027 67.3937 480.481 67.8619C477.964 68.3008 475.901 68.8861 474.292 69.6177C472.711 70.3493 471.556 71.2125 470.824 72.2075C470.122 73.2024 469.77 74.3144 469.77 75.5435C469.77 76.714 469.961 77.7236 470.341 78.5722C470.722 79.4208 471.234 80.1232 471.877 80.6792C472.55 81.2059 473.326 81.6009 474.204 81.8643C475.111 82.0984 476.077 82.2155 477.101 82.2155C478.476 82.2155 479.735 82.0838 480.876 81.8204C482.017 81.5278 483.085 81.1181 484.08 80.5914C485.104 80.0646 486.07 79.4355 486.977 78.7039C487.914 77.9723 488.821 77.1383 489.699 76.2019V66.984ZM464.459 48.8116C466.917 46.4413 469.566 44.6708 472.404 43.5003C475.243 42.3298 478.388 41.7445 481.842 41.7445C484.329 41.7445 486.538 42.1542 488.47 42.9736C490.401 43.7929 492.025 44.9342 493.342 46.3974C494.659 47.8605 495.654 49.6309 496.327 51.7086C497 53.7863 497.336 56.0688 497.336 58.5562V87H493.869C493.108 87 492.523 86.8829 492.113 86.6488C491.703 86.3855 491.381 85.888 491.147 85.1564L490.269 80.9425C489.099 82.0253 487.958 82.9909 486.846 83.8396C485.734 84.6589 484.563 85.3613 483.334 85.9465C482.105 86.5025 480.788 86.9268 479.383 87.2195C478.008 87.5414 476.472 87.7023 474.774 87.7023C473.048 87.7023 471.424 87.4682 469.902 87C468.38 86.5025 467.049 85.7709 465.908 84.8053C464.796 83.8396 463.903 82.6252 463.23 81.162C462.586 79.6696 462.264 77.9138 462.264 75.8946C462.264 74.1388 462.747 72.4562 463.713 70.8467C464.679 69.208 466.244 67.7595 468.41 66.5012C470.575 65.2428 473.399 64.2186 476.881 63.4285C480.364 62.6092 484.636 62.1409 489.699 62.0239V58.5562C489.699 55.1032 488.952 52.4987 487.46 50.7429C485.968 48.9579 483.788 48.0654 480.92 48.0654C478.988 48.0654 477.364 48.3141 476.047 48.8116C474.76 49.2798 473.633 49.8212 472.668 50.4357C471.731 51.0209 470.912 51.5623 470.209 52.0598C469.536 52.528 468.863 52.7621 468.19 52.7621C467.664 52.7621 467.21 52.6304 466.83 52.3671C466.449 52.0744 466.127 51.7233 465.864 51.3136L464.459 48.8116Z" fill="white"/>
<path d="M406.872 81.1716C406.872 80.4107 407.004 79.6938 407.267 79.0207C407.56 78.3477 407.94 77.7624 408.409 77.2649C408.906 76.7675 409.491 76.3724 410.164 76.0798C410.837 75.7872 411.554 75.6408 412.315 75.6408C413.076 75.6408 413.793 75.7872 414.466 76.0798C415.139 76.3724 415.724 76.7675 416.222 77.2649C416.719 77.7624 417.114 78.3477 417.407 79.0207C417.7 79.6938 417.846 80.4107 417.846 81.1716C417.846 81.9617 417.7 82.6933 417.407 83.3663C417.114 84.0101 416.719 84.5807 416.222 85.0782C415.724 85.5757 415.139 85.9561 414.466 86.2195C413.793 86.5121 413.076 86.6584 412.315 86.6584C411.554 86.6584 410.837 86.5121 410.164 86.2195C409.491 85.9561 408.906 85.5757 408.409 85.0782C407.94 84.5807 407.56 84.0101 407.267 83.3663C407.004 82.6933 406.872 81.9617 406.872 81.1716Z" fill="white"/>
<path d="M409.553 41.5346L384.753 99.1245C384.489 99.7098 384.153 100.178 383.743 100.529C383.363 100.88 382.763 101.056 381.943 101.056H376.149L384.27 83.4102L365.922 41.5346H372.682C373.355 41.5346 373.881 41.7102 374.262 42.0614C374.671 42.3833 374.949 42.749 375.096 43.1587L386.991 71.1636C387.459 72.3926 387.855 73.6802 388.176 75.0263C388.586 73.6509 389.025 72.3487 389.493 71.1197L401.038 43.1587C401.213 42.6905 401.506 42.3101 401.915 42.0175C402.354 41.6956 402.837 41.5346 403.364 41.5346H409.553Z" fill="white"/>
<path d="M247.263 50.0502C246.853 50.5769 246.473 50.9574 246.121 51.1915C245.77 51.4256 245.302 51.5426 244.717 51.5426C244.131 51.5426 243.546 51.4109 242.961 51.1476C242.405 50.8842 241.79 50.5916 241.117 50.2697C240.474 49.9185 239.727 49.6113 238.879 49.3479C238.059 49.0845 237.108 48.9528 236.026 48.9528C234.006 48.9528 232.558 49.3479 231.68 50.138C230.831 50.8988 230.407 51.8938 230.407 53.1228C230.407 53.9129 230.641 54.586 231.109 55.142C231.607 55.698 232.251 56.1955 233.041 56.6344C233.831 57.0734 234.723 57.4831 235.718 57.8635C236.743 58.2146 237.781 58.6243 238.835 59.0925C239.888 59.5315 240.913 60.0436 241.907 60.6288C242.932 61.2141 243.839 61.9311 244.629 62.7797C245.419 63.6283 246.048 64.6379 246.516 65.8084C247.014 66.9789 247.263 68.3689 247.263 69.9784C247.263 72.2609 246.809 74.4264 245.902 76.4748C244.995 78.494 243.693 80.2644 241.995 81.7861C240.298 83.2785 238.235 84.4783 235.806 85.3855C233.407 86.2634 230.7 86.7023 227.686 86.7023C226.252 86.7023 224.832 86.556 223.428 86.2634C222.023 85.9707 220.692 85.5757 219.433 85.0782C218.204 84.5807 217.078 83.9955 216.053 83.3224C215.029 82.6201 214.195 81.8739 213.551 81.0838L216.887 76.0798C217.297 75.4945 217.765 75.0409 218.292 74.7191C218.848 74.3679 219.521 74.1923 220.311 74.1923C221.043 74.1923 221.672 74.3679 222.199 74.7191C222.725 75.0702 223.296 75.4506 223.911 75.8603C224.525 76.27 225.257 76.6504 226.105 77.0016C226.954 77.3527 228.066 77.5283 229.441 77.5283C231.373 77.5283 232.807 77.104 233.743 76.2554C234.679 75.3775 235.148 74.3533 235.148 73.1827C235.148 72.2756 234.899 71.5294 234.401 70.9441C233.933 70.3588 233.304 69.8614 232.514 69.4517C231.724 69.0127 230.831 68.6323 229.836 68.3104C228.841 67.9593 227.817 67.5788 226.764 67.1692C225.71 66.7595 224.686 66.2913 223.691 65.7645C222.696 65.2085 221.804 64.5208 221.014 63.7015C220.223 62.8821 219.58 61.8725 219.082 60.6727C218.614 59.4729 218.38 58.0244 218.38 56.3272C218.38 54.2202 218.76 52.1718 219.521 50.1819C220.311 48.192 221.467 46.4362 222.989 44.9145C224.54 43.3636 226.457 42.1199 228.739 41.1835C231.022 40.247 233.685 39.7788 236.728 39.7788C239.771 39.7788 242.478 40.3056 244.848 41.359C247.248 42.4125 249.223 43.7001 250.774 45.2218L247.263 50.0502ZM273.174 49.0406C270.921 49.0406 268.946 49.9478 267.248 51.7621C265.551 53.5472 264.293 56.0053 263.474 59.1364C266.283 58.6975 268.565 58.2293 270.321 57.7318C272.077 57.2343 273.438 56.7076 274.403 56.1516C275.369 55.5663 276.013 54.9518 276.335 54.308C276.686 53.6642 276.861 52.9619 276.861 52.2011C276.861 51.4402 276.569 50.7233 275.984 50.0502C275.398 49.3772 274.462 49.0406 273.174 49.0406ZM288.186 77.5722C286.577 79.1524 284.997 80.5278 283.446 81.6983C281.924 82.8396 280.344 83.7906 278.705 84.5515C277.096 85.2831 275.369 85.8244 273.525 86.1756C271.711 86.5267 269.721 86.7023 267.556 86.7023C264.864 86.7023 262.391 86.2487 260.138 85.3416C257.884 84.4052 255.938 83.1029 254.3 81.4349C252.69 79.7377 251.432 77.7039 250.525 75.3336C249.647 72.9633 249.208 70.3296 249.208 67.4325C249.208 65.0037 249.471 62.6334 249.998 60.3216C250.554 58.0098 251.329 55.8443 252.324 53.8252C253.348 51.7767 254.592 49.9039 256.055 48.2066C257.518 46.4801 259.157 45.0023 260.972 43.7733C262.815 42.5442 264.82 41.5932 266.985 40.9201C269.18 40.2178 271.506 39.8666 273.964 39.8666C276.393 39.8666 278.544 40.2178 280.417 40.9201C282.319 41.6224 283.914 42.5442 285.201 43.6855C286.489 44.7975 287.469 46.0558 288.142 47.4604C288.815 48.8651 289.152 50.2697 289.152 51.6743C289.152 53.752 288.742 55.6541 287.923 57.3806C287.104 59.0779 285.67 60.5996 283.621 61.9457C281.602 63.2918 278.866 64.4331 275.413 65.3695C271.989 66.3059 267.673 67.0375 262.464 67.5642C262.522 70.6661 263.196 72.934 264.483 74.3679C265.8 75.8018 267.731 76.5187 270.277 76.5187C271.477 76.5187 272.516 76.4163 273.394 76.2115C274.272 76.0066 275.032 75.7433 275.676 75.4214C276.349 75.0995 276.949 74.7629 277.476 74.4118C278.003 74.0606 278.5 73.7241 278.968 73.4022C279.466 73.0803 279.978 72.8169 280.505 72.6121C281.031 72.4073 281.631 72.3048 282.304 72.3048C282.743 72.3048 283.168 72.4219 283.577 72.656C283.987 72.8608 284.353 73.1388 284.675 73.49L288.186 77.5722ZM317.696 49.1284C315.472 49.1284 313.438 49.6259 311.594 50.6208C309.78 51.6158 308.215 52.9765 306.898 54.703C305.581 56.4003 304.557 58.3902 303.825 60.6727C303.123 62.926 302.772 65.3402 302.772 67.9154C302.772 69.3785 302.889 70.6222 303.123 71.6464C303.357 72.6706 303.664 73.5046 304.045 74.1484C304.454 74.7629 304.922 75.2165 305.449 75.5092C306.005 75.8018 306.605 75.9481 307.249 75.9481C308.244 75.9481 309.21 75.5823 310.146 74.8507C311.082 74.0899 311.96 73.0657 312.78 71.7781C313.628 70.4905 314.404 68.9835 315.106 67.2569C315.808 65.5304 316.408 63.6868 316.906 61.7262L318.53 49.1284H317.696ZM315.589 78.4062C313.745 80.9814 311.668 83.0152 309.356 84.5076C307.073 85.9707 304.557 86.7023 301.806 86.7023C300.167 86.7023 298.587 86.3804 297.065 85.7366C295.544 85.0636 294.198 84.0686 293.027 82.7518C291.856 81.4057 290.92 79.7084 290.218 77.66C289.515 75.5823 289.164 73.1388 289.164 70.3296C289.164 66.2035 289.91 62.2968 291.403 58.6097C292.925 54.8933 295.032 51.6451 297.724 48.8651C300.445 46.0851 303.664 43.8757 307.381 42.2369C311.097 40.5982 315.179 39.7788 319.627 39.7788C321.793 39.7788 323.987 39.9252 326.211 40.2178C328.435 40.5104 330.63 41.0372 332.796 41.798L327.265 86H319.978C319.13 86 318.413 85.8976 317.828 85.6927C317.272 85.4586 316.818 85.1514 316.467 84.7709C316.145 84.3905 315.911 83.9369 315.764 83.4102C315.647 82.8835 315.589 82.3128 315.589 81.6983V78.4062ZM336.814 76.1676C336.814 75.9627 336.814 75.714 336.814 75.4214C336.814 75.1287 336.829 74.7191 336.858 74.1923C336.916 73.6363 336.99 72.9194 337.077 72.0415C337.194 71.1343 337.341 69.9492 337.516 68.486L339.843 49.8746H336.2C335.585 49.8746 335.073 49.6552 334.663 49.2162C334.254 48.748 334.122 48.0749 334.268 47.197L334.883 41.8858L341.774 40.4812L345.593 29.3758C346.09 27.9712 347.085 27.2688 348.578 27.2688H355.952L354.284 40.5689H364.468L363.326 49.8746H353.143L350.948 67.7398C350.802 68.9396 350.685 69.8906 350.597 70.5929C350.509 71.266 350.436 71.7927 350.378 72.1732C350.348 72.5243 350.334 72.7731 350.334 72.9194C350.334 73.0364 350.334 73.1096 350.334 73.1388C350.334 73.9875 350.524 74.7044 350.904 75.2897C351.314 75.8457 351.943 76.1237 352.792 76.1237C353.26 76.1237 353.64 76.0798 353.933 75.992C354.255 75.8749 354.533 75.7579 354.767 75.6408C355.001 75.4945 355.221 75.3775 355.425 75.2897C355.63 75.1726 355.864 75.1141 356.128 75.1141C356.537 75.1141 356.83 75.2165 357.006 75.4214C357.21 75.5969 357.415 75.8896 357.62 76.2993L360.605 82.7518C358.791 84.0686 356.845 85.0636 354.767 85.7366C352.689 86.3804 350.597 86.7023 348.49 86.7023C346.734 86.7023 345.154 86.4682 343.749 86C342.345 85.5025 341.13 84.8002 340.106 83.8931C339.111 82.9566 338.321 81.8446 337.736 80.5571C337.18 79.2695 336.873 77.8063 336.814 76.1676Z" fill="#FF9FE1"/>
<path d="M42.7535 41.5346V86H38.1006C36.9886 86 36.2863 85.4586 35.9937 84.3759L35.3792 79.5914C33.4478 81.7276 31.2823 83.4541 28.8827 84.7709C26.4832 86.0585 23.7324 86.7023 20.6305 86.7023C18.2017 86.7023 16.0508 86.3073 14.178 85.5172C12.3344 84.6978 10.7835 83.5565 9.52516 82.0934C8.26684 80.6302 7.31579 78.8598 6.672 76.7821C6.05747 74.7044 5.75021 72.4073 5.75021 69.8906V41.5346H13.5635V69.8906C13.5635 73.2559 14.3243 75.8603 15.846 77.7039C17.3969 79.5475 19.7526 80.4693 22.9131 80.4693C25.2248 80.4693 27.3757 79.9279 29.3656 78.8452C31.3847 77.7332 33.2429 76.2115 34.9402 74.2801V41.5346H42.7535ZM57.688 47.9872C58.6537 46.9044 59.6779 45.9241 60.7606 45.0462C61.8433 44.1683 62.9846 43.4221 64.1844 42.8076C65.4134 42.1638 66.701 41.6809 68.0471 41.359C69.4225 41.0079 70.9003 40.8323 72.4805 40.8323C74.9093 40.8323 77.0456 41.242 78.8891 42.0614C80.762 42.8515 82.3129 43.9927 83.542 45.4852C84.8003 46.9483 85.7513 48.7187 86.3951 50.7964C87.0389 52.8741 87.3608 55.1713 87.3608 57.6879V86H79.5037V57.6879C79.5037 54.3226 78.7282 51.7182 77.1772 49.8746C75.6556 48.0018 73.3291 47.0654 70.198 47.0654C67.8862 47.0654 65.7207 47.6214 63.7015 48.7334C61.7117 49.8454 59.8681 51.3524 58.1708 53.2545V86H50.3137V41.5346H55.0104C56.1224 41.5346 56.8101 42.076 57.0734 43.1587L57.688 47.9872ZM102.69 41.5346V86H94.8771V41.5346H102.69ZM104.358 27.5761C104.358 28.3369 104.197 29.0539 103.876 29.7269C103.583 30.3707 103.173 30.956 102.646 31.4827C102.149 31.9802 101.549 32.3753 100.847 32.6679C100.174 32.9605 99.4568 33.1068 98.6959 33.1068C97.9351 33.1068 97.2182 32.9605 96.5451 32.6679C95.9013 32.3753 95.3307 31.9802 94.8332 31.4827C94.3357 30.956 93.9407 30.3707 93.648 29.7269C93.3554 29.0539 93.2091 28.3369 93.2091 27.5761C93.2091 26.8153 93.3554 26.0983 93.648 25.4253C93.9407 24.7229 94.3357 24.123 94.8332 23.6256C95.3307 23.0988 95.9013 22.6892 96.5451 22.3965C97.2182 22.1039 97.9351 21.9576 98.6959 21.9576C99.4568 21.9576 100.174 22.1039 100.847 22.3965C101.549 22.6892 102.149 23.0988 102.646 23.6256C103.173 24.123 103.583 24.7229 103.876 25.4253C104.197 26.0983 104.358 26.8153 104.358 27.5761ZM148.8 41.5346L130.672 86H123.649L105.52 41.5346H111.885C112.529 41.5346 113.055 41.6956 113.465 42.0175C113.875 42.3394 114.153 42.7198 114.299 43.1587L125.58 71.7781C125.931 72.8608 126.239 73.9143 126.502 74.9385C126.765 75.9627 127.014 76.9869 127.248 78.0112C127.482 76.9869 127.731 75.9627 127.994 74.9385C128.258 73.9143 128.58 72.8608 128.96 71.7781L140.373 43.1587C140.548 42.6905 140.841 42.3101 141.251 42.0175C141.66 41.6956 142.143 41.5346 142.699 41.5346H148.8ZM179.698 58.9169C179.698 57.1026 179.435 55.4493 178.908 53.9568C178.411 52.4352 177.664 51.1329 176.669 50.0502C175.704 48.9382 174.519 48.0896 173.114 47.5043C171.709 46.8898 170.115 46.5825 168.329 46.5825C164.584 46.5825 161.614 47.6799 159.419 49.8746C157.253 52.0401 155.907 55.0542 155.381 58.9169H179.698ZM186.019 79.7669C185.053 80.9375 183.897 81.9617 182.551 82.8396C181.205 83.6882 179.757 84.3905 178.206 84.9465C176.684 85.5025 175.104 85.9122 173.465 86.1756C171.826 86.4682 170.202 86.6145 168.593 86.6145C165.52 86.6145 162.682 86.1024 160.077 85.0782C157.502 84.0247 155.263 82.5031 153.361 80.5132C151.489 78.494 150.025 76.0066 148.972 73.0511C147.918 70.0955 147.392 66.7009 147.392 62.8675C147.392 59.7656 147.86 56.8685 148.796 54.1763C149.762 51.4841 151.137 49.1577 152.922 47.197C154.707 45.2072 156.888 43.6562 159.463 42.5442C162.038 41.4029 164.935 40.8323 168.154 40.8323C170.817 40.8323 173.275 41.2859 175.528 42.1931C177.811 43.0709 179.771 44.3585 181.41 46.0558C183.078 47.7238 184.38 49.8015 185.317 52.2888C186.253 54.7469 186.721 57.5562 186.721 60.7166C186.721 61.9457 186.59 62.7651 186.326 63.1747C186.063 63.5844 185.565 63.7893 184.834 63.7893H155.117C155.205 66.5985 155.585 69.042 156.258 71.1197C156.961 73.1974 157.926 74.9385 159.155 76.3432C160.385 77.7185 161.848 78.7574 163.545 79.4597C165.242 80.1327 167.144 80.4693 169.251 80.4693C171.212 80.4693 172.895 80.2498 174.299 79.8108C175.733 79.3426 176.962 78.8452 177.986 78.3184C179.011 77.7917 179.859 77.3088 180.532 76.8699C181.235 76.4017 181.834 76.1676 182.332 76.1676C182.976 76.1676 183.473 76.4163 183.824 76.9138L186.019 79.7669ZM198.908 50.4453C200.313 47.4019 202.039 45.0316 204.088 43.3343C206.136 41.6078 208.638 40.7445 211.594 40.7445C212.53 40.7445 213.423 40.8469 214.271 41.0518C215.149 41.2566 215.925 41.5785 216.598 42.0175L216.027 47.8555C215.852 48.5871 215.413 48.9528 214.71 48.9528C214.301 48.9528 213.701 48.8651 212.911 48.6895C212.121 48.5139 211.228 48.4261 210.233 48.4261C208.829 48.4261 207.57 48.6309 206.458 49.0406C205.375 49.4503 204.395 50.0648 203.517 50.8842C202.669 51.6743 201.893 52.6693 201.191 53.8691C200.518 55.0396 199.903 56.3857 199.347 57.9074V86H191.49V41.5346H195.967C196.816 41.5346 197.401 41.6956 197.723 42.0175C198.045 42.3394 198.265 42.8954 198.382 43.6855L198.908 50.4453Z" fill="white"/>
</svg>
